<svg aria-hidden="true" style="position: absolute; width: 0; height: 0; overflow: hidden;" version="1.1" xmlns="http://www.w3.org/2000/svg" xmlns:xlink="http://www.w3.org/1999/xlink">
<defs>
<symbol id="icon-social-icons-3" viewBox="0 0 32 32">
<path fill="#fff" style="fill: var(--color1, #fff)" opacity="0.1" d="M0.645 15.911c0-8.373 6.788-15.161 15.161-15.161s15.161 6.788 15.161 15.161c0 8.373-6.788 15.161-15.161 15.161s-15.161-6.788-15.161-15.161z"></path>
<path fill="#fff" style="fill: var(--color1, #fff)" d="M22.124 10.699c0.696 0.191 1.244 0.754 1.43 1.468 0.338 1.295 0.338 3.997 0.338 3.997s0 2.702-0.338 3.997c-0.186 0.714-0.734 1.277-1.43 1.468-1.261 0.347-6.318 0.347-6.318 0.347s-5.057 0-6.318-0.347c-0.696-0.191-1.244-0.754-1.43-1.468-0.338-1.295-0.338-3.997-0.338-3.997s0-2.702 0.338-3.997c0.186-0.714 0.734-1.277 1.43-1.468 1.261-0.347 6.318-0.347 6.318-0.347s5.057 0 6.318 0.347zM14.29 13.889v5.053l4.043-2.527-4.043-2.527z"></path>
</symbol>
<symbol id="icon-social-icons-2" viewBox="0 0 31 32">
<path fill="#fff" style="fill: var(--color1, #fff)" opacity="0.1" d="M0.396 15.911c0-8.373 6.788-15.161 15.161-15.161s15.161 6.788 15.161 15.161c0 8.373-6.788 15.161-15.161 15.161s-15.161-6.788-15.161-15.161z"></path>
<path fill="#fff" style="fill: var(--color1, #fff)" d="M15.102 13.073l0.032 0.525-0.53-0.064c-1.93-0.246-3.616-1.081-5.048-2.484l-0.7-0.696-0.18 0.514c-0.382 1.146-0.138 2.355 0.658 3.169 0.424 0.45 0.329 0.514-0.403 0.246-0.255-0.086-0.477-0.15-0.498-0.118-0.074 0.075 0.18 1.049 0.382 1.435 0.276 0.535 0.838 1.060 1.453 1.37l0.52 0.246-0.615 0.011c-0.594 0-0.615 0.011-0.551 0.236 0.212 0.696 1.050 1.435 1.983 1.756l0.658 0.225-0.573 0.343c-0.848 0.492-1.845 0.771-2.842 0.792-0.477 0.011-0.87 0.053-0.87 0.086 0 0.107 1.294 0.707 2.047 0.942 2.259 0.696 4.942 0.396 6.957-0.792 1.432-0.846 2.863-2.527 3.531-4.154 0.36-0.867 0.721-2.452 0.721-3.212 0-0.492 0.032-0.557 0.626-1.146 0.35-0.343 0.679-0.717 0.742-0.824 0.106-0.203 0.095-0.203-0.445-0.021-0.901 0.321-1.029 0.278-0.583-0.203 0.329-0.343 0.721-0.964 0.721-1.146 0-0.032-0.159 0.021-0.339 0.118-0.191 0.107-0.615 0.268-0.933 0.364l-0.573 0.182-0.52-0.353c-0.286-0.193-0.689-0.407-0.901-0.471-0.541-0.15-1.368-0.128-1.856 0.043-1.326 0.482-2.163 1.724-2.068 3.083z"></path>
</symbol>
<symbol id="icon-social-icons-1" viewBox="0 0 31 32">
<path fill="#fff" style="fill: var(--color1, #fff)" opacity="0.1" d="M0.146 15.911c0-8.373 6.788-15.161 15.161-15.161s15.161 6.788 15.161 15.161c0 8.373-6.788 15.161-15.161 15.161s-15.161-6.788-15.161-15.161z"></path>
<path fill="#fff" style="fill: var(--color1, #fff)" d="M23.392 15.9c0 0.547-0.056 1.093-0.165 1.625-0.107 0.52-0.265 1.030-0.471 1.518-0.202 0.479-0.453 0.941-0.746 1.371-0.289 0.428-0.621 0.829-0.986 1.195-0.366 0.364-0.769 0.696-1.196 0.986-0.432 0.291-0.894 0.541-1.374 0.744-0.488 0.206-1 0.363-1.519 0.47-0.533 0.11-1.081 0.166-1.629 0.166s-1.096-0.056-1.628-0.166c-0.52-0.107-1.031-0.264-1.519-0.47-0.479-0.203-0.942-0.453-1.374-0.744-0.428-0.29-0.83-0.621-1.196-0.986-0.366-0.366-0.698-0.767-0.987-1.195-0.291-0.43-0.543-0.892-0.745-1.371-0.207-0.488-0.365-0.998-0.472-1.517-0.108-0.532-0.163-1.078-0.163-1.625s0.055-1.095 0.163-1.626c0.107-0.52 0.265-1.031 0.472-1.518 0.203-0.479 0.454-0.941 0.745-1.372 0.289-0.428 0.621-0.829 0.987-1.195 0.365-0.364 0.768-0.695 1.196-0.984 0.432-0.292 0.895-0.542 1.374-0.746 0.488-0.206 0.999-0.364 1.519-0.47 0.532-0.109 1.080-0.164 1.628-0.164s1.096 0.055 1.629 0.164c0.519 0.106 1.030 0.264 1.519 0.47 0.479 0.203 0.942 0.454 1.374 0.746 0.428 0.289 0.83 0.62 1.196 0.984 0.365 0.366 0.698 0.767 0.986 1.195 0.293 0.431 0.544 0.893 0.746 1.372 0.207 0.487 0.365 0.998 0.471 1.518 0.109 0.531 0.165 1.078 0.165 1.626zM12.36 9.663c-1.926 0.908-3.363 2.68-3.811 4.815 0.182 0.002 3.060 0.038 6.375-0.842-1.195-2.12-2.472-3.851-2.564-3.973zM15.496 14.698c-3.555 1.063-6.967 0.986-7.090 0.982-0.002 0.074-0.006 0.146-0.006 0.22 0 1.771 0.669 3.386 1.769 4.607-0.002-0.004 1.887-3.351 5.614-4.554 0.090-0.030 0.182-0.057 0.272-0.083-0.173-0.392-0.362-0.785-0.56-1.172zM19.866 10.724c-1.216-1.070-2.812-1.72-4.56-1.72-0.561 0-1.106 0.068-1.627 0.193 0.103 0.139 1.4 1.857 2.581 4.022 2.605-0.975 3.589-2.47 3.606-2.496zM16.527 17.012c-0.015 0.005-0.031 0.009-0.046 0.015-4.074 1.418-5.405 4.276-5.419 4.308 1.172 0.91 2.643 1.46 4.244 1.46 0.956 0 1.867-0.194 2.696-0.546-0.102-0.602-0.503-2.714-1.475-5.236zM19.165 21.618c1.55-1.045 2.652-2.704 2.959-4.625-0.142-0.046-2.074-0.656-4.303-0.3 0.906 2.486 1.274 4.51 1.344 4.925zM16.792 14.248c0.16 0.329 0.316 0.663 0.459 1 0.051 0.121 0.101 0.239 0.149 0.357 2.372-0.298 4.709 0.203 4.809 0.224-0.016-1.634-0.601-3.135-1.57-4.309-0.013 0.018-1.121 1.616-3.847 2.728z"></path>
</symbol>
<symbol id="icon-social-icons" viewBox="0 0 32 32">
<path fill="#fff" style="fill: var(--color1, #fff)" opacity="0.1" d="M1.039 15.911c0-8.373 6.788-15.161 15.161-15.161s15.161 6.788 15.161 15.161c0 8.373-6.788 15.161-15.161 15.161s-15.161-6.788-15.161-15.161z"></path>
<path fill="#fff" style="fill: var(--color1, #fff)" d="M16.201 7.825c-2.196 0-2.472 0.010-3.334 0.049-0.861 0.039-1.448 0.176-1.962 0.376-0.532 0.207-0.983 0.483-1.432 0.932s-0.726 0.901-0.933 1.432c-0.2 0.514-0.337 1.102-0.376 1.962-0.039 0.863-0.049 1.138-0.049 3.334s0.010 2.471 0.049 3.333c0.040 0.861 0.176 1.448 0.376 1.962 0.207 0.532 0.483 0.983 0.933 1.432s0.9 0.727 1.432 0.933c0.514 0.2 1.102 0.336 1.963 0.376 0.863 0.039 1.138 0.049 3.334 0.049s2.471-0.010 3.333-0.049c0.861-0.039 1.449-0.176 1.963-0.376 0.532-0.206 0.982-0.483 1.431-0.933s0.726-0.9 0.933-1.432c0.199-0.514 0.335-1.102 0.376-1.962 0.039-0.863 0.049-1.137 0.049-3.333s-0.010-2.472-0.049-3.334c-0.040-0.861-0.177-1.448-0.376-1.963-0.207-0.532-0.483-0.983-0.933-1.432s-0.9-0.726-1.432-0.932c-0.516-0.2-1.103-0.336-1.964-0.376-0.862-0.039-1.137-0.049-3.334-0.049h0.003zM15.475 9.282c0.215-0 0.455 0 0.725 0 2.159 0 2.415 0.008 3.267 0.046 0.788 0.036 1.216 0.168 1.501 0.278 0.377 0.147 0.646 0.322 0.929 0.605s0.458 0.553 0.605 0.93c0.111 0.285 0.243 0.713 0.279 1.501 0.039 0.852 0.047 1.108 0.047 3.266s-0.008 2.414-0.047 3.266c-0.036 0.788-0.168 1.216-0.279 1.501-0.146 0.377-0.322 0.646-0.605 0.929s-0.552 0.458-0.929 0.605c-0.285 0.111-0.713 0.243-1.501 0.279-0.852 0.039-1.108 0.047-3.267 0.047s-2.415-0.008-3.267-0.047c-0.788-0.036-1.216-0.168-1.502-0.279-0.377-0.147-0.647-0.322-0.93-0.605s-0.458-0.552-0.605-0.929c-0.111-0.285-0.243-0.713-0.278-1.501-0.039-0.852-0.046-1.108-0.046-3.268s0.008-2.414 0.046-3.266c0.036-0.788 0.168-1.216 0.278-1.501 0.147-0.377 0.322-0.647 0.605-0.93s0.553-0.458 0.93-0.605c0.285-0.111 0.713-0.243 1.502-0.279 0.746-0.034 1.035-0.044 2.542-0.046v0.002zM20.517 10.625c-0.536 0-0.97 0.434-0.97 0.97s0.435 0.97 0.97 0.97c0.536 0 0.97-0.434 0.97-0.97s-0.434-0.97-0.97-0.97zM16.201 11.758c-2.293 0-4.152 1.859-4.152 4.152s1.859 4.152 4.152 4.152c2.293 0 4.152-1.858 4.152-4.152s-1.858-4.152-4.152-4.152zM16.201 13.216c1.488 0 2.695 1.207 2.695 2.695s-1.207 2.695-2.695 2.695c-1.489 0-2.695-1.207-2.695-2.695s1.207-2.695 2.695-2.695z"></path>
</symbol>
<symbol id="icon-arrow-right" viewBox="0 0 63 32">
<path fill="none" stroke="#fff" style="stroke: var(--color1, #fff)" stroke-linejoin="round" stroke-linecap="round" stroke-miterlimit="4" stroke-width="1.9653" d="M12.467 16.097h47.166"></path>
<path fill="none" stroke="#fff" style="stroke: var(--color1, #fff)" stroke-linejoin="round" stroke-linecap="round" stroke-miterlimit="4" stroke-width="1.9653" d="M50.462 6.926l9.171 9.171-9.171 9.171"></path>
</symbol>
<symbol id="icon-user" viewBox="0 0 32 32">
<path fill="#fff" style="fill: var(--color1, #fff)" d="M15.89 29.456c-7.645 0-13.842-6.197-13.842-13.842s6.197-13.842 13.842-13.842c7.645 0 13.842 6.197 13.842 13.842s-6.198 13.842-13.842 13.842zM15.89 30.994c8.495 0 15.38-6.886 15.38-15.38s-6.886-15.38-15.38-15.38c-8.495 0-15.38 6.886-15.38 15.38s6.886 15.38 15.38 15.38z"></path>
<path fill="#fff" style="fill: var(--color1, #fff)" d="M6.662 24.558c0-0.794 0.594-1.466 1.384-1.553 5.933-0.657 9.782-0.598 15.702 0.015 0.296 0.031 0.576 0.147 0.806 0.335s0.401 0.438 0.492 0.722c0.090 0.283 0.096 0.587 0.017 0.873s-0.24 0.544-0.463 0.74c-6.987 6.090-10.979 6.006-17.446 0.006-0.315-0.292-0.492-0.707-0.492-1.137v-0.001z"></path>
<path fill="#fff" style="fill: var(--color1, #fff)" d="M23.668 23.784c-5.873-0.608-9.666-0.665-15.539-0.015-0.395 0.044-0.699 0.381-0.699 0.79 0 0.22 0.092 0.428 0.246 0.573 3.205 2.973 5.634 4.317 8.008 4.325 2.382 0.009 4.942-1.324 8.41-4.347 0.11-0.098 0.189-0.226 0.228-0.368s0.035-0.293-0.010-0.433c-0.045-0.14-0.13-0.265-0.244-0.358s-0.253-0.151-0.4-0.166v-0.001zM7.961 22.24c5.995-0.664 9.9-0.604 15.866 0.014 0.445 0.046 0.866 0.221 1.213 0.504s0.604 0.66 0.739 1.086c0.136 0.426 0.144 0.883 0.024 1.313s-0.362 0.817-0.699 1.112c-3.518 3.067-6.448 4.737-9.426 4.726-2.986-0.011-5.787-1.709-9.048-4.736-0.234-0.217-0.42-0.481-0.547-0.773s-0.193-0.608-0.192-0.928c-0.001-0.573 0.209-1.127 0.591-1.555s0.908-0.7 1.478-0.764v0.001z"></path>
<path fill="#fff" style="fill: var(--color1, #fff)" d="M22.042 12.538c0 1.632-0.648 3.196-1.802 4.35s-2.718 1.802-4.35 1.802c-1.632 0-3.196-0.648-4.35-1.802s-1.802-2.719-1.802-4.35c0-1.632 0.648-3.196 1.802-4.35s2.719-1.802 4.35-1.802c1.632 0 3.197 0.648 4.35 1.802s1.802 2.719 1.802 4.35z"></path>
<path fill="#fff" style="fill: var(--color1, #fff)" d="M15.89 17.152c-1.224 0-2.397-0.486-3.263-1.351s-1.351-2.039-1.351-3.263 0.486-2.397 1.351-3.263c0.865-0.865 2.039-1.351 3.263-1.351s2.397 0.486 3.263 1.351c0.865 0.865 1.351 2.039 1.351 3.263s-0.486 2.397-1.351 3.263c-0.865 0.865-2.039 1.352-3.263 1.352zM15.89 18.69c1.632 0 3.197-0.648 4.35-1.802s1.802-2.719 1.802-4.35-0.648-3.196-1.802-4.35c-1.154-1.154-2.718-1.802-4.35-1.802s-3.196 0.648-4.35 1.802-1.802 2.719-1.802 4.35c0 1.632 0.648 3.196 1.802 4.35s2.719 1.802 4.35 1.802z"></path>
</symbol>
<symbol id="icon-cart" viewBox="0 0 32 32">
<path fill="none" stroke="#fff" style="stroke: var(--color1, #fff)" stroke-linejoin="round" stroke-linecap="butt" stroke-miterlimit="4" stroke-width="2.3583" d="M7.157 9.851h17.616c0.357 0 0.71 0.075 1.036 0.22s0.619 0.356 0.858 0.621c0.239 0.265 0.421 0.577 0.532 0.916s0.151 0.698 0.115 1.053l-0.766 7.665c-0.063 0.63-0.358 1.215-0.828 1.64s-1.081 0.66-1.714 0.661h-12.199c-0.591 0-1.164-0.204-1.62-0.579s-0.77-0.896-0.886-1.475l-2.143-10.72z"></path>
<path fill="none" stroke="#fff" style="stroke: var(--color1, #fff)" stroke-linejoin="round" stroke-linecap="round" stroke-miterlimit="4" stroke-width="2.3583" d="M7.157 9.85l-1.035-4.143c-0.069-0.276-0.229-0.521-0.453-0.697s-0.501-0.27-0.786-0.27h-1.558"></path>
<path fill="none" stroke="#fff" style="stroke: var(--color1, #fff)" stroke-linejoin="round" stroke-linecap="round" stroke-miterlimit="4" stroke-width="2.3583" d="M10.99 27.734h2.554"></path>
<path fill="none" stroke="#fff" style="stroke: var(--color1, #fff)" stroke-linejoin="round" stroke-linecap="round" stroke-miterlimit="4" stroke-width="2.3583" d="M21.209 27.734h2.554"></path>
</symbol>
<symbol id="icon-logo" viewBox="0 0 21 32">
<path  d="M10.391 23.793l-9.405-5.55 9.4 13.251 9.41-13.251-9.404 5.55zM10.531 0.852l-9.402 15.604 9.402 5.56 9.405-5.554-9.405-15.61z"></path>
</symbol>
</defs>
</svg>
