<?xml version="1.0" standalone="no"?>
<!DOCTYPE svg PUBLIC "-//W3C//DTD SVG 20010904//EN"
 "http://www.w3.org/TR/2001/REC-SVG-20010904/DTD/svg10.dtd">
<svg version="1.0" xmlns="http://www.w3.org/2000/svg"
 width="21.000000pt" height="33.000000pt" viewBox="0 0 21.000000 33.000000"
 preserveAspectRatio="xMidYMid meet">

<g transform="translate(0.000000,33.000000) scale(0.100000,-0.100000)"
fill="#000000" stroke="none">
<path d="M71 221 l-31 -60 30 -21 c30 -21 70 -20 70 1 0 6 4 8 9 5 5 -3 15 2
22 11 12 15 12 16 -6 9 -15 -5 -17 -4 -9 4 8 8 4 24 -15 61 -14 27 -29 49 -32
49 -4 0 -21 -27 -38 -59z"/>
<path d="M131 103 c-19 -13 -28 -14 -42 -4 -22 13 -23 11 -8 -23 7 -14 16 -23
20 -20 5 3 9 0 9 -7 0 -6 11 5 25 26 30 43 28 51 -4 28z"/>
</g>
<linearGradient id="paint0_linear_2_253" x1="107.862" y1="49.7456" x2="128.013" y2="50.2306" gradientUnits="userSpaceOnUse">
<stop offset="0.183111" stop-color="#FF56F6"/>
<stop offset="0.432593" stop-color="#B936EE"/>
<stop offset="0.854443" stop-color="#3BACE2"/>
<stop offset="1" stop-color="#406AFF"/>
</linearGradient>
</svg>
